<svg xmlns="http://www.w3.org/2000/svg" height="800" width="1200" version="1.0" viewBox="-239.985 -417.29675 2079.87 2503.7805"><g fill="#062f62"><path d="M253.03 941.41C432.25 627.63 611.46 313.85 790.7.09c-33.48 214.83-67.09 429.63-100.57 644.46-.24 2.25-2.4 3.51-3.7 5.16C457.63 894.68 228.78 1139.6 0 1384.59c84.17-147.83 168.73-295.43 253.03-443.18zM808.55 0c263.88 461.57 527.5 923.29 791.35 1384.88-105.14-112.16-210.02-224.58-315.09-336.82-124.85-133.54-249.72-267.07-374.58-400.6-1.28-1.71-1.06-4.03-1.49-6.01C875.38 427.63 841.91 213.82 808.55 0zM424.81 983.1c6.84-7.41 13.19-15.3 20.3-22.43 44.61-.22 89.24-.07 133.86-.08-77.19 141.45-154.78 282.68-231.96 424.13-93.26 0-186.51.04-279.77-.01 119.23-133.84 238.37-267.75 357.57-401.61zm198.35-22.53c77.87.02 155.73-.05 233.59.02 6.89 47.05 13.87 94.08 20.74 141.13-25.76.02-51.51.03-77.27.02-.01 94.33 0 188.66-.01 283-81.58.02-163.16-.05-244.73.04 11.81-40.64 24.21-81.11 36.25-121.68 16.04-53.51 31.96-107.05 48.05-160.54-26.35.02-52.69 0-79.04.02 20.82-47.33 41.6-94.68 62.42-142.01zm311.23 2.15c8.55-3.53 17.87-1.88 26.83-2.15 64.66-.02 129.32.03 193.99-.03 38.12 42.59 76.02 85.41 114.12 128.03-52.74.02-105.49-.04-158.23.04-10.44.24-18.28 12.7-13.31 22.11 16 30 32.31 59.85 48.39 89.82 6.28 13.91 20.8 23.43 36.06 23.66 62.33.01 124.66 0 186.98 0 6.84.11 13.7-.22 20.53.14 47.5 53.27 94.73 106.81 142.09 160.21-157.54.04-315.07.03-472.61.01-6.97-.18-14.01.84-20.91-.53-16.82-2.61-31.95-13.96-39.2-29.35-3.57-6.96-4.6-14.79-6.65-22.25-27.17-109-54.48-217.98-81.58-327-4.11-17.47 6.55-36.82 23.5-42.71zM413.18 1505.5c14.45-12.47 33.77-20 53-17.97 11.97.98 23.49 5.74 32.92 13.15 2.94 2.15 7.17 4.8 10.68 2.31 4.51-3.79 3.14-10.88 7.53-14.77 1.33.8 3.26 1.39 2.97 3.38.31 19.64.24 39.31.97 58.94.09 2.73-.09 5.51-1.08 8.11-1.39-.44-3.3-.56-3.62-2.31-3.31-9.3-5.86-18.93-10.23-27.82-3.9-7.78-8.11-15.54-14.02-21.99-6.72-7.51-15.92-13.15-26.08-14.15-13.24-1.24-28.22 2.64-36.28 13.93-5.84 8.01-8.16 17.86-10.13 27.4-2.56 14.83-3.29 29.89-4 44.91-.2 18.66.06 37.91 6.87 55.57 3.8 9.84 10.22 19.21 19.8 24.14 10.37 5.43 22.68 4.76 33.8 2.34 13-2.78 24.8-10.97 31.52-22.5 6.8-10.99 8.79-24.05 9.48-36.73 2.31-.59 4.68-.47 7.01 0 .33 1.35 1.1 2.67.83 4.15-.82 9.19-2.53 18.35-5.68 27.05-5.73 16.29-20.67 28.44-37.32 32.3-11.75 2.67-24.19 4.17-36.04 1.22-14-3.37-26.92-10.53-37.9-19.76-3.74-3.22-7.3-6.76-9.75-11.08-4.34-7.41-9.09-14.65-12.18-22.71-8.31-21.23-8.25-45.59.18-66.77 5.9-15.12 14.87-29.21 26.75-40.34zm1079.01-16.5c3.71-.25 7.42-1.06 11.16-.62 2.37.44 3.98 2.74 3.83 5.12.08 49.34.03 98.69.02 148.03-.19 5.07-.36 11.45 4.54 14.52 6 3.01 13.01 2.25 19.52 2.36 1.13 1.55 1.35 4.32-1.14 4.46-14.96.98-29.95 1.55-44.92 2.29-2.75.3-6.27-.64-6.85-3.73-.45-4.97.14-9.98-.23-14.94-.47-.66-.94-1.28-1.41-1.85-3.36 3.77-6.41 7.88-10.44 11.01-10.37 8.67-24.79 12.25-37.99 9.19-14.35-3.07-26.37-13.32-33.54-25.87-9.62-16.78-12.13-37.61-6.4-56.11 4.97-15.76 15.76-29.82 30.29-37.86 10.59-5.86 23.47-8.35 35.23-4.81 9.9 2.79 17.63 10.14 23.42 18.36 1.56-2.42.7-5.35.8-8.01-.11-14 .01-28-.01-42 .08-4.53-2.8-9.05-7.09-10.61-6.11-2.27-12.74-1.42-19.09-2.06.05-1.59-.51-3.66 1.52-4.16 12.93-.9 25.85-1.87 38.78-2.71m-51.62 56.04c-7.62 2.21-12.88 8.88-15.94 15.89-5.6 12.75-6.42 26.91-6.84 40.64.27 9.73.61 19.54 2.69 29.09 1.69 7.54 4.33 15.23 9.74 20.97 5.83 6.31 15.36 8.7 23.57 6.4 5.3-1.66 9.84-5.33 12.99-9.86 6.72-9.35 9.41-20.9 10.73-32.16 1.48-15.38.93-31.24-3.86-46.03-2.82-8.22-7.05-16.47-14.22-21.7-5.32-3.98-12.52-5.21-18.86-3.24zm-632.16-54.32c9.4-2.86 20.18 4.11 21.22 13.91 1.74 9.71-6.68 19.43-16.49 19.28-8.58.36-16.51-6.79-17.09-15.34-.94-7.94 4.64-15.92 12.36-17.85zm327.98-.04c10.41-3.11 21.94 5.98 21.13 16.85.04 10.22-10.55 18.45-20.45 16.02-8.42-1.66-14.52-10.35-13.14-18.84.72-6.65 5.99-12.45 12.46-14.03zm74.88 2.85c.27-3.28 5.85-3.17 6.12.08.03 14.64-.04 29.3-.01 43.94-.4 2.17 1.56 4.13 3.72 3.99 10.37.18 20.76-.18 31.13.15 3.08.23 3.55 4.78.99 6.12-10.37-.03-20.75-.2-31.11-.01-3.03-.16-5.04 2.9-4.71 5.71-.06 30.01.02 60.03-.03 90.05-.21 5.58 1.91 11.9 7.19 14.56 7.63 3.7 17.8 1.76 23.08-5.04 5.58-7.2 7-16.7 6.97-25.57-.24-1.66.64-3.05 1.4-4.41 1.46.23 3.48-.36 4.4 1.25 1.35 1.77.51 4.09.47 6.14-.8 11.02-4.06 22.65-12.28 30.47-5.62 5.56-13.64 8.09-21.41 8.21-9.19.18-18.76-1.04-26.81-5.74-7.67-4.39-12.93-12.97-12.79-21.87.03-28.67.01-57.34.02-86-.27-2.47.08-5.64-2.16-7.26-2.91-1.16-6.2-.39-9.25-.58-3.44-.3-7.29 1.09-10.29-1.09-.1-2.14.4-5.21 3.21-5.01 14.43 1.26 27.87-8.44 34.24-20.9 4.17-8.53 6.47-17.85 7.91-27.19zm-1014.23.04c49.93.01 99.86-.02 149.79.01-.1 22.78.15 45.56-.12 68.33.21 3.18-3.83 3.81-5.67 1.78-2.48-16.72-7.68-33.16-16.35-47.72-3.97-6.44-9.36-12.85-17.01-14.75-5.74-1.26-11.65-1.93-17.51-1.54-2.16 1.51-2.37 4.47-2.38 6.9.06 46.65.01 93.31.02 139.96-.19 3.99 1.95 8.09 5.77 9.61 8.53 3.6 18.1 2.32 26.96 4.34.42 2.21-.49 4.9-3.26 4.41-30.68.07-61.37-.02-92.05.05-1.56-.12-3.58.18-4.51-1.4.03-.81.1-2.45.13-3.26 9.93-1.65 20.48-1.75 29.59-6.56 2.7-1.44 5.9-3.63 5.75-7.07.03-47.36.01-94.73.01-142.09.16-2-.58-4.76-2.97-4.91-7.44-.47-15.4.18-21.93 4.1-8.19 5.6-13.28 14.51-17.55 23.24-5.61 11.39-8.54 23.83-11.15 36.18-.97 2.46-3.92 1.84-5.58.48.02-23.37.01-46.73.02-70.09zm-129.1 5.22c-.24-1.78-.31-4.52 2.2-4.35 28.04-.04 56.09-.05 84.14-.01 2.52-.2 2.36 2.57 2.19 4.33-7.75 1.82-16.18 1.13-23.5 4.68-3.04 1.45-5.04 4.75-4.76 8.15.01 45.35-.02 90.69.01 136.04-.28 3.95 2.72 7.31 6.3 8.56 6.57 2.33 13.65 2.62 20.52 3.5 1.64.49 1.88 2.33 1.34 3.77-1.24 1.58-3.39 1.18-5.15 1.31-26.68-.08-53.36.02-80.04-.06-2.43.37-4.1-1.77-3.28-4.04 1.66-1.75 4.29-1.11 6.43-1.53 5.44-.75 11.07-1.12 16.2-3.23 3.34-1.31 5.8-4.65 5.65-8.29.04-45.37.01-90.74.01-136.1.26-3.93-2.48-7.44-6.07-8.73-7.1-2.72-14.86-2.41-22.19-4zm552.47-4.03c29.58-.43 59.2-.08 88.79-.18 2.76-.75 4.33 3.55 1.8 4.75-8.4 1.28-17.3.69-25.37 3.77-4.28 1.5-6.57 6.05-6.25 10.42.02 44.38-.07 88.77.03 133.15-.34 4.7 3 9.01 7.49 10.21 7.92 2.25 16.31 3.19 24.49 1.89 11.35-1.4 23.63-3.6 32.21-11.82 12.3-11.81 16.97-29.02 19.6-45.33.48-2.21.3-5.67 3-6.42 2.77.74 3.02 3.97 3.01 6.35 0 19.69-.01 39.38.01 59.08.37 1.84-.97 4.01-2.96 4.03-45.67.16-91.35.37-137.03.29-2.96-.17-6.03.42-8.9-.39-2.18-1-1.36-4.57.91-4.64 6.89-1.04 14.12-1 20.66-3.67 3.85-1.51 6.22-5.56 5.95-9.64 0-44.68-.02-89.36 0-134.04.26-4.35-2.72-8.4-6.8-9.76-6.36-2.12-13.14-2.43-19.74-3.26-2.53-.11-2.98-3.66-.9-4.79zm311.35 52.36c6.31-4.42 13.74-7.57 21.53-7.8 9.19-.42 18.94 1.02 26.52 6.6 6.18 4.53 10.46 11.31 12.85 18.52.57 1.79 1.5 3.43 2.56 5 2.97-2.89 3.97-7.09 6.67-10.17 5.51-6.62 12.08-12.52 19.9-16.27 9.38-4.8 20.49-4.45 30.54-2.27 13.81 2.96 25.62 15.5 25.97 29.89.45 7.97-.11 15.95-.09 23.93-.92 17.33-.53 34.71-1.43 52.04-.29 3.8.85 8.13 4.6 9.89 5.64 2.59 12.01 2.91 18.06 4.02.31 1.38.27 2.8-.03 4.21-13.73.52-27.48.08-41.21.23-11.74-.15-23.49.28-35.21-.23-.35-1.42-.36-2.84.01-4.21 5.95-1 12.08-1.43 17.76-3.59 3.34-1.32 5.56-4.76 5.35-8.35.26-23.99-.01-47.98.13-71.96.62-6.63.46-13.63-2.39-19.76-2.23-4.83-7.27-8.19-12.61-8.14-7.85-.34-15.14 3.93-20.25 9.61-8.46 9.47-13.52 21.61-15.46 34.08-1.89 8.26-1.21 16.75-1.32 25.15.03 10.37-.07 20.75.03 31.13-.18 3.6 2.16 6.95 5.48 8.28 5.25 2.11 11 2.3 16.46 3.58 1.58.87 1.55 3.24-.07 4.09-1.93.46-3.92.27-5.87.32-22.36-.07-44.72.05-67.08-.03-2.36.63-4.49-2.29-2.7-4.13 6.45-2.04 13.92-1.24 19.77-5.08 4.22-2.97 3.33-8.67 3.38-13.13.04-24-.14-48 .12-71.99-.48-6.65-1.5-14.16-6.7-18.89-4.01-3.67-10-3.5-14.89-2.03-7.25 2.06-12.98 7.46-17.24 13.47-5.24 7.62-9.08 16.26-10.6 25.42-3.92 17.74-2.05 35.98-2.49 53.98-.01 4.64-.72 10.71 3.94 13.51 5.61 3.08 12.25 3.15 18.4 4.43.25.45.73 1.37.97 1.82-.22.6-.67 1.8-.89 2.4-10.34.56-20.71.1-31.06.25-15.35-.07-30.71.15-46.05-.1-2.59-.07-2.52-3.09-1.17-4.56 6.39-.56 12.92-1.04 19.06-3.04 3.69-1.12 6.5-4.69 6.17-8.62.03-29.73.06-59.47 0-89.2.12-3.94-2.99-7.24-6.62-8.28-5.27-1.58-10.79-2.09-16.23-2.77-3.41-.5-2.05-5.71.8-5.77 15.03-.56 30.05-1.39 45.07-2.2 3.43-.38 7.49 1.53 7.8 5.35.74 6.87-.81 13.78-.08 20.68 1.2 2.49 3.09.04 3.71-1.48 3.43-7.41 9.65-13.07 16.13-17.83zm383.69-7.33c16.48-2.28 34.47 2.2 46.65 13.89 11.31 10.97 15.4 27.49 14.63 42.83.09 1.86-1.59 3.47-3.46 3.08-25-.12-49.99.15-74.98.2-2.51.01-3.32 2.79-3.36 4.85-.87 12.92-.3 26.42 4.96 38.44 3.52 8.14 10.63 14.86 19.38 16.88 13.5 3.04 28.89-.57 38.54-10.81 6.11-6.4 9.95-14.75 11.56-23.4.26-1.85 1.71-3.95 3.86-3.45 3.42.49 2.38 4.74 2.25 7.19-2.72 14.49-13.19 27.16-26.8 32.79-16.82 7.03-36.97 6.79-53.05-2.12-18-9.6-30.44-28.48-32.71-48.69-4.52-32.53 20.03-66.34 52.53-71.68m3.2 5.35c-5.3 1.14-10.09 4.38-13.17 8.83-6.89 9.76-8.11 22.02-9.59 33.53-.54 2.89.76 7.1 4.37 6.85 12.67.13 25.34.04 38.01.03 3.5.11 7.95-.69 9.17-4.54 1.61-5.58 1.51-11.49 1.17-17.23-.42-7.96-2.06-16.6-7.96-22.4-5.76-5.59-14.45-6.34-22-5.07z"/><path d="M809.29 1542.16c5.01-.04 9.99-1.09 14.99-.69 2.89.42 4.22 3.35 3.94 6.03.03 34.05-.06 68.11.02 102.16-.14 3.43 2.57 6.26 5.7 7.26 6.23 2.02 12.85 2.37 19.26 3.58 2.19.82 1.43 4.6-.95 4.36-25.34.15-50.69.09-76.02.02-2.5.33-2.56-2.52-2.05-4.17 5.93-1.67 11.93-3.12 17.91-4.63 4.18-1.08 7.23-5.09 6.93-9.44.06-28.73.02-57.46-.01-86.18.2-3.87-2.23-7.54-5.83-8.91-5.68-2.07-11.79-2.37-17.72-3.23-1.77-.5-1.28-2.5-1.53-3.84 2.64-1.03 5.49-1.03 8.29-1.07 9.03-.19 18.03-1.09 27.07-1.25zm307.96 1c10.65-.78 21.34-.89 31.98-1.79 2.78-.45 6.63.91 6.54 4.27.12 34.33 0 68.67.07 103-.18 3.47 1.9 6.78 5.17 8.03 6.43 2.33 13.36 2.55 20.03 3.85 2.47 1.25.81 5.04-1.78 4.39-25.04.02-50.08.08-75.11-.02-2.27.38-3.54-2.84-1.69-4.06 5.99-2.43 12.53-3.08 18.61-5.21 3.72-1.28 5.84-5.15 5.75-8.94.03-28.75.03-57.49 0-86.24.19-4.06-2.51-7.83-6.34-9.09-5.54-1.8-11.4-2.3-17.16-2.95-1.75-.58-1.36-2.62-1.54-4 5.01-1.5 10.32-.77 15.47-1.24z"/></g></svg>